<?xml version="1.0" standalone="no"?>
<!DOCTYPE svg PUBLIC "-//W3C//DTD SVG 1.1//EN" "http://www.w3.org/Graphics/SVG/1.1/DTD/svg11.dtd">
<svg xmlns="http://www.w3.org/2000/svg">
<metadata>Copyright (C) 2017 by original authors @ fontello.com</metadata>
<defs>
<font id="fontello" horiz-adv-x="1000" >
<font-face font-family="fontello" font-weight="400" font-stretch="normal" units-per-em="1000" ascent="850" descent="-150" />
<missing-glyph horiz-adv-x="1000" />
<glyph glyph-name="alert-triangle" unicode="&#xe800;" d="M1129-26l-485 836c-16 25-44 40-75 40-30 0-54-15-70-40l-485-836c-15-24-20-56-4-80 15-25 45-39 75-39l958 0c37 0 75 15 91 40 15 24 10 54-5 79l0 0z m-44-49c-3-4-19-13-42-13l-958 0c-13 0-23 6-27 12-2 3-1 12 5 20l0 1 0 1 485 834c7 11 14 13 21 13 11 0 21-5 26-13l484-835 1-1 0 0c5-9 7-16 5-19z m-514 152c-23 0-42-18-42-40 0-22 19-40 42-40 24 0 43 18 43 40 0 22-19 40-43 40z m0 51c16 0 29 13 29 29l0 408c0 16-13 29-29 29-15 0-28-13-28-29l0-408c0-16 13-29 28-29z" horiz-adv-x="1143" />

<glyph glyph-name="search" unicode="&#xe801;" d="M348 89c209-20 398 134 413 348 20 214-139 393-348 408s-393-134-413-343 139-393 348-413l0 0z m10 99c-154 15-268 150-258 309s149 273 308 259 274-150 259-309-155-269-309-259z m254-10l313-293 35-35 65 75-30 34-313 289-35 35-65-70 30-35z" horiz-adv-x="1030" />

<glyph glyph-name="youtube" unicode="&#xe802;" d="M542 156v-118q0-37-22-37-13 0-25 12v168q12 12 25 12 22 0 22-37z m188-1v-25h-50v25q0 38 25 38t25-38z m-539 122h60v52h-174v-52h59v-318h55v318z m161-318h50v276h-50v-211q-17-23-32-23-10 0-11 11-1 2-1 20v203h-50v-218q0-28 5-41 7-21 32-21 27 0 57 34v-30z m240 83v110q0 41-5 55-10 31-40 31-28 0-52-30v121h-50v-370h50v27q25-31 52-31 30 0 40 31 5 15 5 56z m188 6v7h-51q0-29-1-34-4-20-22-20-26 0-26 38v49h100v57q0 44-15 65-22 28-59 28-38 0-60-28-15-21-15-65v-96q0-44 16-65 22-29 60-29 40 0 60 30 10 15 12 30 1 5 1 33z m-339 509v117q0 39-24 39t-24-39v-117q0-39 24-39t24 39z m401-419q0-131-14-195-8-33-33-56t-57-25q-102-12-309-12t-310 12q-32 3-57 25t-32 56q-15 62-15 195 0 131 15 195 7 33 32 56t57 26q103 11 310 11t309-11q33-4 57-26t33-56q14-62 14-195z m-557 712h57l-67-223v-151h-56v151q-8 42-34 119-21 57-37 104h60l39-147z m207-186v-97q0-46-16-66-21-29-59-29-38 0-59 29-15 21-15 66v97q0 45 15 65 21 29 59 29 38 0 59-29 16-20 16-65z m187 91v-279h-51v31q-30-35-58-35-25 0-33 21-4 13-4 42v220h51v-205q0-19 0-20 2-12 12-12 15 0 32 24v213h51z" horiz-adv-x="857.1" />

<glyph glyph-name="facebook" unicode="&#xe803;" d="M500 644l-142 0q-14 0-25-15t-11-37l0-102 178 0 0-148-178 0 0-442-170 0 0 442-152 0 0 148 152 0 0 86q0 94 59 159t147 65l142 0 0-156z" horiz-adv-x="500" />

<glyph glyph-name="twitter" unicode="&#xe804;" d="M904 622q-37-54-90-93 0-8 0-23 0-73-21-145t-64-139-103-117-144-82-181-30q-151 0-276 81 19-2 43-2 126 0 224 77-59 1-105 36t-64 89q19-3 34-3 24 0 48 6-63 13-104 62t-41 115v2q38-21 82-23-37 25-59 64t-22 86q0 49 25 91 68-83 164-133t208-55q-5 21-5 41 0 75 53 127t127 53q79 0 132-57 61 12 114 44-20-64-79-100 52 6 104 28z" horiz-adv-x="928.6" />

<glyph glyph-name="pinterest" unicode="&#xe805;" d="M320 190q-26-130-58-211t-96-129q-6 74-7 120t11 110 22 104 26 99 24 99q-24 52-19 116t48 106 99 20q40-16 44-59t-13-95-32-103-4-90 63-49q68-14 121 38t74 131 11 163-54 128q-62 64-151 70t-163-33-120-117-32-170q4-22 22-52t21-47-17-67q-146 34-140 230 4 138 105 234t233 112q164 18 290-57t144-219q26-176-66-317t-252-129q-22 2-42 9t-30 13-31 21-31 21z" horiz-adv-x="778" />

<glyph glyph-name="gplus" unicode="&#xe806;" d="M48 572q0 58 25 102t56 65 69 34 56 15 26 2l230 0 0-4q0-22-78-36-28 0-38-6 40-20 54-56t14-96q0-102-68-158-38-38-38-54 0-18 50-64 104-90 104-178 0-140-116-194-68-34-150-34l-4 0-4 2q-2-2-4-2-24 0-54 5t-75 21-74 57-29 103q0 60 32 101t83 57 88 22 71 6l2 0q-16 22-24 47t-8 39l2 14-14 0q-64 0-110 30-74 44-74 160z m370-452q-4 52-43 84t-103 32l-16 0q-64-2-114-46-46-42-42-94t53-80 119-24q68 4 109 40t37 88z m-60 500q-30 108-122 108-12 0-20-2-40-12-58-62-16-50-2-106 14-52 47-85t71-33q12 0 18 2 42 12 63 65t3 113z m388-174l150 0 0-94-150 0 0-150-94 0 0 150-150 0 0 94 150 0 0 150 94 0 0-150z" horiz-adv-x="896" />

<glyph glyph-name="help" unicode="&#xe807;" d="M494 740q86-62 86-184 0-64-42-124-12-20-88-80l-46-30q-40-34-48-60-6-16-8-44 0-14-16-14l-128 0q-16 0-16 12 4 98 28 124 16 22 48 48t56 42l24 14q22 16 34 34 28 44 28 70 0 40-26 78-28 36-92 36-68 0-94-44-28-42-28-92l-166 0q6 162 114 232 70 42 166 42 130 0 214-60z m-216-636q44 0 73-30t27-74q-2-46-32-73t-74-25q-44 0-73 29t-27 75 32 73 74 25z" horiz-adv-x="580" />

<glyph glyph-name="mail" unicode="&#xe808;" d="M1000 454v-443q0-37-26-63t-63-27h-822q-36 0-63 27t-26 63v443q25-28 56-49 202-137 278-192 32-24 51-37t53-27 61-13h2q28 0 61 13t53 27 51 37q95 68 278 192 32 22 56 49z m0 164q0-44-27-84t-68-69q-210-146-262-181-5-4-23-17t-30-22-29-18-33-15-27-5h-2q-12 0-27 5t-33 15-29 18-30 22-23 17q-51 35-147 101t-114 80q-35 23-65 64t-31 77q0 43 23 72t66 29h822q36 0 62-26t27-63z" horiz-adv-x="1000" />

<glyph glyph-name="mobile" unicode="&#xe809;" d="M480 840q42 0 71-29t29-71l0-780q0-40-29-70t-71-30l-380 0q-40 0-70 30t-30 70l0 780q0 42 30 71t70 29l380 0z m-190-940q30 0 50 15t20 35q0 22-20 36t-50 14q-28 0-49-15t-21-35 21-35 49-15z m210 150l0 660-420 0 0-660 420 0z" horiz-adv-x="580" />

<glyph glyph-name="alert" unicode="&#xe80a;" d="M286 154v-125q0-15-11-25t-25-11h-143q-14 0-25 11t-11 25v125q0 14 11 25t25 10h143q15 0 25-10t11-25z m16 589l-15-429q-1-14-12-25t-25-10h-143q-14 0-25 10t-12 25l-15 429q-1 14 9 25t25 11h179q14 0 25-11t9-25z" horiz-adv-x="357.1" />

<glyph glyph-name="bag-icon" unicode="&#xe80b;" d="M200-150c0 450 370 800 960 800 610 0 960-310 960-800l200 0c0 610-440 1000-1160 1000-690 0-1160-430-1160-1000h200l0 0z" horiz-adv-x="2320" />

<glyph glyph-name="check" unicode="&#xe80c;" d="M249 0q-34 0-56 28l-180 236q-16 24-12 52t26 46 51 14 47-28l118-154 296 474q16 24 43 30t53-8q24-16 30-43t-8-53l-350-560q-20-32-56-32z" horiz-adv-x="667" />

<glyph glyph-name="mail-circled" unicode="&#xe80d;" d="M0 350q0 207 147 354t353 146 354-146 146-354-146-354-354-146-353 146-147 354z m244-193l512 0-166 174-90-51-90 51z m0 58l131 137-131 74 0-211z m0 256l256-144 256 144 0 72-512 0 0-72z m381-119l131-137 0 211z" horiz-adv-x="1000" />

<glyph glyph-name="adchoices" unicode="&#xe80e;" d="M405 467c0-31-25-56-56-56-30 0-55 25-55 56 0 30 25 55 55 55 31 0 56-25 56-55m508-51l-393 212-386 208c-14 7-29 11-43 11-48 0-91-38-91-91l0-408 0-407c0-53 43-91 91-91 14 0 29 3 43 11l106 57c22 12 35 34 35 59l0 0c0 40-43 66-79 46l0 0c-34-19-77 7-77 46l0 279 0 280c0 39 50 73 85 54l261-148 257-145c32-18 32-64 0-81l-257-138-63-35 0 189c0 29-23 54-52 54-30 1-54-23-54-52l0-238 0-10 0-9c0-54 58-89 106-63l118 63 393 212c54 29 54 106 0 135" horiz-adv-x="957" />

<glyph glyph-name="down-open" unicode="&#xe80f;" d="M939 399l-414-413q-10-11-25-11t-25 11l-414 413q-11 11-11 26t11 25l92 92q11 11 26 11t25-11l296-296 296 296q11 11 25 11t26-11l92-92q11-11 11-25t-11-26z" horiz-adv-x="1000" />

<glyph glyph-name="left-open" unicode="&#xe810;" d="M653 682l-296-296 296-297q11-10 11-25t-11-25l-92-93q-11-10-25-10t-25 10l-414 415q-11 10-11 25t11 25l414 414q10 10 25 10t25-10l92-93q11-10 11-25t-11-25z" horiz-adv-x="714.3" />

<glyph glyph-name="right-open" unicode="&#xe811;" d="M618 361l-414-415q-11-10-25-10t-26 10l-92 93q-11 11-11 25t11 25l296 297-296 296q-11 11-11 25t11 25l92 93q11 10 26 10t25-10l414-414q10-11 10-25t-10-25z" horiz-adv-x="714.3" />

<glyph glyph-name="threshold-delivery" unicode="&#xe812;" d="M675 150c-14 0-25-11-25-25l0-92 0 0 0 0-50 0c0 0 0 0-1 0l0 634c1 0 1 0 1 0l50 0 0 0 0 0 0-92c0-14 11-25 25-25 14 0 25 11 25 25l0 92c0 29-22 50-50 50l-50 0c0 0 0 0-1 0l0 53c0 44-34 79-77 80l-4 0-5-1-436-63c-43-1-77-36-77-79l0-714c0-42 33-77 75-79l438-63 4-1 5 0c43 1 77 37 77 80l0 53c1 0 1 0 1 0l50 0c28 0 50 22 50 50l0 92c0 14-11 25-25 25l0 0z m-126-220c0-16-12-30-29-30l-440 63c-17 0-30 14-30 30l0 714c0 16 13 29 30 29l2 1 438 63c17 0 29-14 29-30l0-840z m-99 453c-19 0-34-15-34-33 0-18 15-33 34-33 18 0 33 15 33 33 0 18-15 33-33 33z m550-39l0-3 0-2c-1-6-4-14-12-23-30-30-135-136-136-137-5-5-12-8-18-8-7 0-13 3-18 8-10 9-10 25 0 35 1 1 60 60 102 103l-244 0c-14 0-25 11-25 25 0 14 11 25 25 25l0 0 244 0c-42 42-101 102-102 102-10 10-10 26 0 36 10 9 26 9 36 0 1-1 106-108 136-138 9-9 11-18 12-23z" horiz-adv-x="1000" />

<glyph glyph-name="left-open-thin" unicode="&#xe813;" d="M515 835l-469-461-16-15 16-15 466-473 34 33-470 470 0-33 473 464-34 30z" horiz-adv-x="576" />

<glyph glyph-name="right-open-thin" unicode="&#xe814;" d="M27 805l470-461 0 33-464-476 34-33 466 473 16 15-16 15-472 464-34-30z" horiz-adv-x="576" />

<glyph glyph-name="up-open-thin" unicode="&#xe815;" d="M84-97l806 821-58 0 821-811 58 58-827 805-26 27-26-27-800-816 52-57z" horiz-adv-x="1737" />

<glyph glyph-name="down-open-thin" unicode="&#xe816;" d="M32 750l800-816 26-26 26 26 827 811-58 52-821-810 58 0-806 821-52-58z" horiz-adv-x="1737" />

<glyph glyph-name="heart" unicode="&#xe817;" d="M500-79q-14 0-25 10l-348 336q-5 5-15 15t-31 36-38 55-30 67-13 77q0 123 71 192t196 70q34 0 70-12t67-33 54-38 42-38q20 20 42 38t54 38 67 33 70 12q125 0 196-70t71-192q0-123-128-251l-347-335q-10-10-25-10z" horiz-adv-x="1000" />

<glyph glyph-name="heart-empty" unicode="&#xe818;" d="M929 517q0 46-12 80t-31 55-46 33-52 18-55 4-62-14-62-36-48-40-34-34q-10-13-27-13t-27 13q-14 15-34 34t-48 40-62 36-62 14-55-4-52-18-46-33-31-55-12-80q0-93 105-198l324-312 324 312q105 105 105 198z m71 0q0-123-128-251l-347-335q-10-10-25-10t-25 10l-348 336q-5 5-15 15t-31 36-38 55-30 67-13 77q0 123 71 192t196 70q34 0 70-12t67-33 54-38 42-38q20 20 42 38t54 38 67 33 70 12q125 0 196-70t71-192z" horiz-adv-x="1000" />

<glyph glyph-name="icon-checkmark" unicode="&#xe819;" d="M700 817l-533-734 141-16-150 350-150-67 150-350 59-133 83 116 533 734-133 100z" horiz-adv-x="833" />

<glyph glyph-name="video" unicode="&#xe81a;" d="M333 622v-550l445 278-445 272z m167-722c-244 0-444 200-444 444s200 445 444 445 444-200 444-445-200-444-444-444z m0 833c-217 0-389-172-389-389 0-216 172-388 389-388s389 172 389 388c0 217-178 389-389 389z" horiz-adv-x="1000" />

<glyph glyph-name="blog" unicode="&#xe81b;" d="M166 342c0-73-2-147 0-220 1-48 38-89 85-101 43-11 90 9 116 49 26 40 26 96-1 131-23 29-55 38-90 38-34 0-60 13-74 44-15 32-12 63 9 92 14 18 32 27 54 28 141 8 252-81 278-205 31-147-56-299-196-338-158-45-327 69-343 233-5 51-3 102-4 154 0 97 0 195 0 293 0 39 19 66 53 79 32 11 68 3 91-22 16-17 20-37 20-59 0-66 0-131 0-196l2 0 0 0z m180 389l0 118c311 19 656-263 650-650l-121 0c-33 319-207 497-529 532l0 0z m427-532l-123 0c-3 83-31 155-89 215-59 59-131 88-215 91l0 123c235 11 440-208 427-429l0 0z" horiz-adv-x="1000" />

<glyph glyph-name="up-open" unicode="&#xe81c;" d="M939 107l-92-92q-11-10-26-10t-25 10l-296 297-296-297q-11-10-25-10t-26 10l-92 92q-11 11-11 26t11 25l414 414q11 10 25 10t25-10l414-414q11-11 11-25t-11-26z" horiz-adv-x="1000" />

<glyph glyph-name="location" unicode="&#xe81d;" d="M0 473q0 70 27 134 25 61 74 111 47 47 110 73 63 27 134 27 72 0 135-27 62-26 110-73 48-49 74-111 27-64 27-134t-27-134q-18-40-36-65l-229-347q-22-35-53-35t-55 35l-228 347q-22 31-36 65-27 64-27 134z m217 0q0-53 37-91 38-38 91-38 54 0 91 38 38 37 38 91 0 53-38 91-37 38-91 38-53 0-91-38-37-38-37-91z" horiz-adv-x="691.4" />

<glyph glyph-name="alert-info" unicode="&#xe820;" d="M500 792c244 0 442-198 442-442 0-244-198-442-442-442-244 0-442 198-442 442 0 244 198 442 442 442m0 58c276 0 500-224 500-500 0-276-224-500-500-500-276 0-500 224-500 500 0 276 224 500 500 500z m0-200c-21 0-37-17-37-37 0-21 16-38 37-38 21 0 38 17 38 38 0 20-17 37-38 37z m0-624c16 0 29 13 29 28l0 392c0 16-13 29-29 29-16 0-29-13-29-29l0-392c0-15 13-28 29-28z" horiz-adv-x="1000" />

<glyph glyph-name="delivery-box" unicode="&#xe821;" d="M998 614c0 4-1 8-3 12-4 7-11 12-19 13l-466 209c-7 3-16 3-24 0l-470-211c-10-4-15-12-16-22l0 0 0-1 0-528c0-9 6-18 16-22l470-211c1 0 1 0 1 0 0 0 1-1 2-1 0 0 0 0 1 0 0 0 1-1 2-1 0 0 0 0 0 0 1 0 2 0 3 0l0 0c1 0 3-1 3-1 1 0 3 0 3 1l1 0c1 0 2 0 2 0 1 0 1 0 1 0 1 0 1 1 2 1 0 0 1 0 1 0 1 0 1 0 2 1 0 0 0 0 1 0l472 211c9 4 15 13 15 23l0 527c0 0 0 0 0 0z m-500 183l408-183-150-67-408 182 150 68z m0-365l-408 182 195 87 408-182-195-87z m-443 141l416-185 0-472-416 186 0 471z m471-657l0 472 195 87 0-123c0-14 12-26 27-26 15 0 28 12 28 26l0 148 167 74 0-471-417-187z" horiz-adv-x="1000" />

<glyph glyph-name="delivery-glove" unicode="&#xe822;" d="M611-150l0 766c0 41-34 74-74 74-9 0-17-1-25-4l-7-3-1 0 0 1 0 8 0 31c0 41-33 74-74 74-9 0-18-2-27-5l-6-3 0 0 0 1-2 5c-9 33-38 55-71 55-34 0-63-22-72-55l-1-5-1-1 0 0-5 3c-9 3-18 5-28 5-41 0-74-33-74-74l0-277 0-16 0-1 0 1-10 13c-21 26-57 36-87 23-28-12-46-39-46-69 0-10 2-19 6-28l146-354 0-165 459 0z m-42 42l-375 0 0 125 375 0 0-125 0 0z m-525 493l0 1 0 0 0 0 0 0c-2 4-2 7-2 11 0 13 8 25 20 30 10 5 20 2 24 0 5-2 14-6 18-17l81-184 0 497c0 18 14 32 32 32 18 0 33-14 33-32l0-290 41 0 0 343c0 18 15 32 33 32 17 0 32-14 32-32l0-343 42 0 0 290c0 18 14 32 32 32 18 0 32-14 32-32l0-290 42 0 0 183c0 18 15 33 33 33 17 0 32-15 32-33 0-4 0-528 0-558l-390 0-135 327z m213-410c11 0 20-9 20-21 0-11-9-21-20-21-12 0-21 10-21 21 0 12 9 21 21 21z" horiz-adv-x="625" />

<glyph glyph-name="haul" unicode="&#xe823;" d="M995 324l-167 302c-8 15-29 26-45 26-5 0-10-1-14-3l-358-197-176 328c-3 6-9 11-16 13l-184 56c-14 4-29-4-34-18-4-15 4-30 18-34l174-53 298-558c-40-27-66-74-66-126 0-85 69-154 154-154 85 0 154 69 154 154 0 23-5 44-14 63l264 143c16 10 22 40 12 58l0 0z m-416-363c-55 0-100 44-100 99 0 55 45 100 100 100 55 0 99-45 99-100 0-55-44-99-99-99l0 0z m110 207c-28 28-67 46-110 46-14 0-26-2-39-5l-104 195 347 191 160-289-254-138 0 0z" horiz-adv-x="1000" />

<glyph glyph-name="pickup-bag" unicode="&#xe824;" d="M598 547c3 16 17 27 33 25 16-3 27-17 24-33 0-2-8-55-40-108-44-73-112-111-196-111l-1 0c-84 0-152 38-196 111-32 53-40 106-40 108-2 16 9 30 24 33 16 2 31-9 33-25 1-7 26-169 179-169l1 0c63 0 113 28 147 83 26 43 32 86 32 86z m345-292c35-42 56-97 56-156 0-135-109-245-245-245-135 0-244 110-244 245 0 113 76 208 179 236l0 25c0 36 30 65 65 65 36 0 65-29 65-65l0-25c30-8 58-22 82-40l17 16c11 12 30 12 41 0 11-11 11-29 0-40l-16-16z m-189-343c104 0 188 84 188 187 0 103-84 187-188 187-103 0-187-84-187-187 0-103 84-187 187-187z m141 216c16 0 29-13 29-29 0-16-13-29-29-29l-141 0c-16 0-28 13-28 29l0 87c0 16 12 29 28 29 16 0 29-13 29-29l0-58 112 0z m-834-55l0 0 421 0c2-20 6-40 12-58l-436 0c-28 0-56 27-56 55l28 639c0 0 0 14 10 28 11 14 74 88 87 101 7 7 20 10 24 10l535 0c10 0 17-3 24-10 12-12 72-89 84-101 13-14 13-28 13-28l13-281c-16 15-36 24-59 26l-9 211-666 0-26-592c0 0 1 0 1 0z m642 716l0-66 52 0-52 66z m-534 7l0-73 500 0 0 73c0 7-4 10-11 10l-479 0c-7 0-10-3-10-10z m-35-10l-56-63 56 0 0 63z" horiz-adv-x="1000" />

<glyph glyph-name="pp-protection" unicode="&#xe825;" d="M742 794l-646 0c-22 0-40-18-40-40l0-485c0-87 60-175 178-261 83-60 165-97 169-99 5-2 11-3 16-3 6 0 11 1 17 3 3 2 85 39 169 99 118 86 178 174 178 261l0 485c0 22-18 40-41 40z m-40-525c0-75-78-147-144-195-55-40-112-70-139-83-27 13-83 43-139 83-65 48-144 120-144 195l0 445 566 0 0-445z m-357-1c8-8 18-12 29-12 11 0 22 4 30 12l179 189c16 16 15 42-1 57-16 15-42 15-57-1l-151-158-60 63c-16 16-41 17-57 2-16-16-17-41-2-57l90-95z" horiz-adv-x="833" />

<glyph glyph-name="recycle-bin" unicode="&#xe826;" d="M765 732l-134 0 0 87c0 18-14 31-31 31-2 0-3-1-4-1 0 0-2 1-2 1l-314 0-2 0-2 0c-18 0-31-13-31-31l0-87-134 0c-39 0-69-30-69-68l0-49 0-62 59 0 0-635c0-39 30-68 68-68l537 0c38 0 68 29 68 68l0 635 59 0 0 62 0 49c0 38-30 68-68 68z m-458 56l262 0 0-56-262 0 0 56 0 0z m405-870c0-4-2-6-6-6l-537 0c-4 0-6 2-6 6l0 635 549 0 0-635 0 0z m58 697l-665 0 0 49c0 4 2 6 6 6l654 0c4 0 5-2 5-6l0-49z m-219-135l63 0 0-513-63 0 0 513z m-144 0l62 0 0-513-62 0 0 513z m-144 0l62 0 0-513-62 0 0 513z" horiz-adv-x="875" />

<glyph glyph-name="return" unicode="&#xe827;" d="M451 714c33 33 71 71 71 72 11 11 11 28 0 39-11 11-28 10-39 0-3-4-91-92-115-117-9-9-12-18-13-23l0-3 0-3c1-6 3-14 13-24 24-25 112-113 115-117 6-5 13-8 20-8 7 0 14 3 19 8 11 11 11 29 0 39 0 1-46 46-81 82 202-4 365-169 365-372 0-205-167-372-372-372-206 0-372 167-372 372 0 15-13 28-28 28-15 0-27-13-27-28 0-235 191-427 427-427 235 0 427 192 427 427 0 230-183 418-410 427" horiz-adv-x="875" />

<glyph glyph-name="store" unicode="&#xe828;" d="M1052 850l-961 0c-55 0-91-36-91-90l0-162c0-40 23-72 57-85l0-568c0-50 36-81 95-81l853 0c58 0 81 22 81 79l0 570c34 13 57 45 57 85l0 166c0 53-35 86-91 86l0 0z m-785-929l0 421c0 12 4 32 29 32l247 0 0-453-276 0 0 0z m333 453l241 0c16 0 35-5 35-29l0-424-276 0 0 453 0 0z m427-451c-2 0-8-2-22-2l-72 0 0 424c0 50-38 86-92 86l-545 0c-51 0-86-37-86-89l0-421-58 0c-38 0-38 15-38 24l0 562 915 0 0-564c0-12-1-18-2-20l0 0z m59 675c0-17-11-34-34-34l-961 0c-23 0-34 17-34 34l0 162c0 22 11 33 34 33l961 0c31 0 34-15 34-29l0-166 0 0z" horiz-adv-x="1143" />

<glyph glyph-name="print" unicode="&#xe829;" d="M1019 735l-895 0c-72 0-124-51-124-121l0-370c0-73 51-125 124-125l38 0-14-173c0-58 38-96 95-96l657 0c57 0 96 38 96 96l-15 173 38 0c73 0 124 52 124 125l0 366c0 73-51 125-124 125l0 0z m-119-827l-657 0c-25 0-37 12-38 36l43 502c0 2 0 3 0 5 0 29 24 34 38 34l571 0c26 0 39-13 39-39 0-1 0-3 0-5l42-497c0-24-13-36-38-36z m-109 192l-438 0c-16 0-29-13-29-29 0-16 13-29 29-29l438 0c16 0 28 13 28 29 0 16-12 29-28 29z m-419 154l400 0c15 0 28 13 28 29 0 16-13 29-28 29l-400 0c-16 0-29-13-29-29 0-16 13-29 29-29z m-58 538c-15 0-28 13-28 29 0 16 13 29 28 29l515 0c16 0 28-13 28-29 0-16-12-29-28-29l-515 0z" horiz-adv-x="1214" />

<glyph glyph-name="recycle" unicode="&#xe82a;" d="M561-5l-141-142 0 95-311 0c-39 0-74 20-94 55-20 33-20 74 0 108l53 94 81-46-54-94c-3-7-1-13 1-16 1-3 5-7 13-7l311 0 0 95 141-142z m422 117c20-34 20-75 1-109-20-34-55-54-94-54l-109-1 0 94 108 0c8 0 12 5 14 8 1 3 4 9 0 15l-156 269-82-47 52 193 193-51-82-48 155-269z m-394 683l55-94-81-47-55 94c-4 6-10 7-13 7-3 0-10-1-14-7l-155-270 82-47-193-52-52 194 82-48 156 269c19 34 54 55 94 55l0 0c39 0 74-21 94-54z" horiz-adv-x="1000" />

<glyph glyph-name="gift" unicode="&#xe82b;" d="M934 850h-867c-33 0-67-33-67-67v-866c0-33 32-67 63-67h871c32 1 66 33 66 67v871c0 29-33 62-66 62z m9-65v-406h-255c56 30 84 66 83 108-1 72-57 128-132 134a100 100 0 0 1-7 0c-46 0-79-30-103-69v240h404a22 22 0 0 0 10-7z m-409-398c14 86 51 177 98 177l3 0c45-4 78-37 79-79 1-35-73-75-180-98z m-247 98c1 42 34 75 78 79a46 46 0 0 0 4 0c47 0 83-91 98-177-108 23-181 63-180 98z m180-172c-15-86-51-177-99-177-1 0-2 0-3 1-44 3-77 36-78 78-1 35 72 75 180 98z m247-98c-1-42-34-75-79-78a44 44 0 0 0-3-1c-47 0-84 91-98 177 107-23 181-63 180-98z m-647 577h404v-240c-23 39-57 69-103 69-2 0-5 0-7 0-75-6-130-62-132-134-1-42 27-78 83-108h-254v404a19 19 0 0 0 9 9z m-9-875v404h254c-56-29-84-66-83-108 2-72 57-128 132-134 2 0 5 0 7 0 46 0 80 30 103 69v-240h-406a21 21 0 0 0-7 9z m874-9h-403v240c24-39 57-69 103-69 2 0 5 0 7 0 75 6 130 62 132 134 1 42-27 79-83 108h254v-404a19 19 0 0 0-10-9z" horiz-adv-x="1000" />

<glyph glyph-name="info-fill" unicode="&#xe82c;" d="M493 850c-272 0-493-220-493-492 0-272 221-493 493-493 272 0 492 221 492 493 0 272-220 492-492 492z m28-722a28 28 0 0 0-57 0v386a28 28 0 0 0 57 0v-386z m-28 451a37 37 0 1 0 0 74 37 37 0 0 0 0-74z" horiz-adv-x="1000" />

<glyph glyph-name="barcode" unicode="&#xe82d;" d="M1286 809s0 17 47 17c48 0 48-17 48-17v-919s0-16-48-16c-47 0-47 16-47 16v919z m-286 0s0 17 48 17c47 0 47-17 47-17v-919s0-16-47-16c-48 0-48 16-48 16v919z m-190 0s0 17 47 17 48-17 48-17v-919s0-16-48-16-47 16-47 16v919z m-143 0s0 17 47 17 48-17 48-17v-919s0-16-48-16-47 16-47 16v919z m-143 0s0 17 47 17 48-17 48-17v-919s0-16-48-16-47 16-47 16v919z m-286 0s0 17 48 17 47-17 47-17v-919s0-16-47-16-48 16-48 16v919z m-190 0s0 17 47 17c48 0 48-17 48-17v-919s0-16-48-16c-47 0-47 16-47 16v919z" horiz-adv-x="1429" />

<glyph glyph-name="tooltip" unicode="&#xe830;" d="M227 797c49 0 97-21 130-59 20-22 31-46 36-72 5-27 0-59-15-89l-4-8 476-542c13-15 20-34 18-54-1-20-10-39-25-52-14-12-31-18-49-18-22 0-42 9-56 25l-470 535-6 7-9-3c-17-6-35-9-51-9-14 0-28 3-40 7-25 7-47 22-66 44-37 42-51 98-39 152l83-94 116 23 38 112-83 95c5 0 10 0 16 0m0 53l0 0c-7 0-14 0-20-1l-104-9 131-150-18-54-57-11-131 149-23-101c-15-71 4-145 51-199 26-29 56-49 89-59 18-6 37-9 57-9 14 0 28 1 42 4l454-517c24-27 59-43 96-43 31 0 61 11 84 32 25 22 41 53 43 87 2 34-9 67-31 93l-454 516c11 33 14 67 9 97-6 36-22 69-48 98-43 49-105 77-170 77" horiz-adv-x="938" />

<glyph glyph-name="truck" unicode="&#xe831;" d="M1160 838l-609 0c-60 0-122-59-122-116l0-130-172 0c-17 0-38-2-80-26-3-2-6-4-8-7l-140-161c-1-2-2-3-3-5-25-44-26-91-26-97l0-273c0-18 14-32 32-32l39 0c11-73 73-129 149-129 75 0 138 56 148 129l88 0c23-32 60-54 97-54l310 0c26-45 74-75 130-75 55 0 104 30 130 75l43 0c56 0 116 65 116 127l0 656c0 60-60 118-122 118l0 0z m-940-912c-48 0-86 39-86 86 0 47 38 86 86 86 47 0 85-39 85-86 0-47-38-86-85-86l0 0z m143 129c-18 62-76 107-143 107-68 0-126-45-144-107l-12 0 0 241c0 1 1 34 16 62l134 155c26 14 37 14 43 14l172 0 0-463c0-3 0-6 1-9l-67 0 0 0z m630-129c-47 0-86 39-86 86 0 47 39 86 86 86 47 0 85-39 85-86 0-47-38-86-85-86l0 0z m225 138c0-31-36-63-52-63l-24 0c1 4 1 7 1 11 0 83-67 150-150 150-83 0-150-67-150-150 0-4 0-7 0-11l-290 0c-29 0-59 37-59 63l0 658c0 22 32 52 57 52l609 0c26 0 58-30 58-54l0-656 0 0z" horiz-adv-x="1333" />
</font>
</defs>
</svg>
